<svg width="33" height="33" viewBox="0 0 33 33" fill="none" xmlns="http://www.w3.org/2000/svg">
<path d="M26.9931 24.8315C27.2749 25.1133 27.4332 25.4955 27.4332 25.894C27.4332 26.2925 27.2749 26.6747 26.9931 26.9565C26.7113 27.2383 26.3291 27.3966 25.9306 27.3966C25.5321 27.3966 25.1499 27.2383 24.8681 26.9565L16.9318 19.0177L8.99308 26.954C8.71129 27.2358 8.3291 27.3941 7.93058 27.3941C7.53207 27.3941 7.14987 27.2358 6.86808 26.954C6.58629 26.6722 6.42798 26.29 6.42798 25.8915C6.42798 25.493 6.58629 25.1108 6.86808 24.829L14.8068 16.8927L6.87058 8.95399C6.58879 8.67219 6.43048 8.29 6.43048 7.89149C6.43048 7.49297 6.58879 7.11078 6.87058 6.82899C7.15237 6.54719 7.53457 6.38888 7.93308 6.38888C8.3316 6.38888 8.71379 6.54719 8.99558 6.82899L16.9318 14.7677L24.8706 6.82774C25.1524 6.54594 25.5346 6.38763 25.9331 6.38763C26.3316 6.38763 26.7138 6.54594 26.9956 6.82774C27.2774 7.10953 27.4357 7.49172 27.4357 7.89024C27.4357 8.28875 27.2774 8.67094 26.9956 8.95274L19.0568 16.8927L26.9931 24.8315Z" fill="#BDBDBD"/>
</svg>
