<svg width="32" height="32" viewBox="0 0 32 32" fill="none" xmlns="http://www.w3.org/2000/svg">
<rect width="32" height="32" rx="16" fill="#231F27"/>
<path d="M7.86957 12.6154V19.3846C7.86957 19.609 7.76879 19.8243 7.58941 19.9829C7.41002 20.1416 7.16673 20.2308 6.91304 20.2308H5.95652C5.70284 20.2308 5.45954 20.1416 5.28016 19.9829C5.10078 19.8243 5 19.609 5 19.3846V12.6154C5 12.391 5.10078 12.1757 5.28016 12.0171C5.45954 11.8584 5.70284 11.7692 5.95652 11.7692H6.91304C7.16673 11.7692 7.41002 11.8584 7.58941 12.0171C7.76879 12.1757 7.86957 12.391 7.86957 12.6154ZM11.6957 5H10.7391C10.4854 5 10.2422 5.08915 10.0628 5.24783C9.88339 5.40652 9.78261 5.62174 9.78261 5.84615V26.1538C9.78261 26.3783 9.88339 26.5935 10.0628 26.7522C10.2422 26.9109 10.4854 27 10.7391 27H11.6957C11.9493 27 12.1926 26.9109 12.372 26.7522C12.5514 26.5935 12.6522 26.3783 12.6522 26.1538V5.84615C12.6522 5.62174 12.5514 5.40652 12.372 5.24783C12.1926 5.08915 11.9493 5 11.6957 5ZM16.4783 8.38462H15.5217C15.2681 8.38462 15.0248 8.47376 14.8454 8.63245C14.666 8.79113 14.5652 9.00636 14.5652 9.23077V22.7692C14.5652 22.9936 14.666 23.2089 14.8454 23.3676C15.0248 23.5262 15.2681 23.6154 15.5217 23.6154H16.4783C16.7319 23.6154 16.9752 23.5262 17.1546 23.3676C17.334 23.2089 17.4348 22.9936 17.4348 22.7692V9.23077C17.4348 9.00636 17.334 8.79113 17.1546 8.63245C16.9752 8.47376 16.7319 8.38462 16.4783 8.38462ZM21.2609 11.7692H20.3043C20.0507 11.7692 19.8074 11.8584 19.628 12.0171C19.4486 12.1757 19.3478 12.391 19.3478 12.6154V19.3846C19.3478 19.609 19.4486 19.8243 19.628 19.9829C19.8074 20.1416 20.0507 20.2308 20.3043 20.2308H21.2609C21.5146 20.2308 21.7579 20.1416 21.9372 19.9829C22.1166 19.8243 22.2174 19.609 22.2174 19.3846V12.6154C22.2174 12.391 22.1166 12.1757 21.9372 12.0171C21.7579 11.8584 21.5146 11.7692 21.2609 11.7692ZM26.0435 10.0769H25.087C24.8333 10.0769 24.59 10.1661 24.4106 10.3248C24.2312 10.4834 24.1304 10.6987 24.1304 10.9231V21.0769C24.1304 21.3013 24.2312 21.5166 24.4106 21.6752C24.59 21.8339 24.8333 21.9231 25.087 21.9231H26.0435C26.2972 21.9231 26.5405 21.8339 26.7198 21.6752C26.8992 21.5166 27 21.3013 27 21.0769V10.9231C27 10.6987 26.8992 10.4834 26.7198 10.3248C26.5405 10.1661 26.2972 10.0769 26.0435 10.0769Z" fill="#E1D90F"/>
</svg>
